<svg width="163" height="134" viewBox="0 0 163 134" fill="none" xmlns="http://www.w3.org/2000/svg">
<g clip-path="url(#clip0_17_585)">
<path d="M51.759 39.5295L57.2884 33.748L45.7255 22.6891L40.1961 28.4705L45.9775 34L51.759 39.5295ZM12 69.526L6.21855 63.9965L0.888533 69.5694L6.26199 75.1005L12 69.526ZM40.2395 110.075L45.8141 115.813L57.2901 104.663L51.7155 98.9255L45.9775 104.5L40.2395 110.075ZM121.804 28.4705L116.274 22.6891L104.712 33.748L110.241 39.5295L116.022 34L121.804 28.4705ZM150 69.526L155.738 75.1005L161.111 69.5694L155.781 63.9965L150 69.526ZM110.284 98.9255L104.71 104.663L116.186 115.813L121.76 110.075L116.022 104.5L110.284 98.9255ZM45.9775 34L40.1961 28.4705L6.21855 63.9965L12 69.526L17.7814 75.0554L51.759 39.5295L45.9775 34ZM12 69.526L6.26199 75.1005L40.2395 110.075L45.9775 104.5L51.7155 98.9255L17.738 63.9515L12 69.526ZM116.022 34L110.241 39.5295L144.219 75.0554L150 69.526L155.781 63.9965L121.804 28.4705L116.022 34ZM150 69.526L144.262 63.9515L110.284 98.9255L116.022 104.5L121.76 110.075L155.738 75.1005L150 69.526ZM58.5 134L66.1499 136.341L107.15 2.34065L99.5 0L91.8501 -2.34065L50.8501 131.659L58.5 134Z" fill="white"/>
</g>
<defs>
<clipPath id="clip0_17_585">
<rect width="163" height="134" fill="white"/>
</clipPath>
</defs>
</svg>
